{
	"asset":{
		"generator":"Khronos glTF Blender I/O v5.1.19",
		"version":"2.0"
	},
	"extensionsUsed":[
		"KHR_materials_specular"
	],
	"scene":0,
	"scenes":[
		{
			"name":"Scene",
			"nodes":[
				0
			]
		}
	],
	"nodes":[
		{
			"mesh":0,
			"name":"blasterD",
			"rotation":[
				0.70710688829422,
				0,
				0,
				0.7071066498756409
			]
		}
	],
	"materials":[
		{
			"doubleSided":true,
			"extensions":{
				"KHR_materials_specular":{
					"specularFactor":0
				}
			},
			"name":"metal",
			"pbrMetallicRoughness":{
				"baseColorFactor":[
					0.7960783839225769,
					0.8156862854957581,
					0.8784313797950745,
					1
				],
				"metallicFactor":0
			}
		},
		{
			"doubleSided":true,
			"extensions":{
				"KHR_materials_specular":{
					"specularFactor":0
				}
			},
			"name":"dark",
			"pbrMetallicRoughness":{
				"baseColorFactor":[
					0.1568627953529358,
					0.19607840478420258,
					0.2392157018184662,
					1
				],
				"metallicFactor":0
			}
		},
		{
			"doubleSided":true,
			"extensions":{
				"KHR_materials_specular":{
					"specularFactor":0
				}
			},
			"name":"darkMetal",
			"pbrMetallicRoughness":{
				"baseColorFactor":[
					0.5921568870544434,
					0.6352940797805786,
					0.7686275243759155,
					1
				],
				"metallicFactor":0
			}
		},
		{
			"doubleSided":true,
			"extensions":{
				"KHR_materials_specular":{
					"specularFactor":0
				}
			},
			"name":"purple",
			"pbrMetallicRoughness":{
				"baseColorFactor":[
					0.6117647290229797,
					0.43921568989753723,
					0.9607843160629272,
					1
				],
				"metallicFactor":0
			}
		},
		{
			"doubleSided":true,
			"extensions":{
				"KHR_materials_specular":{
					"specularFactor":0
				}
			},
			"name":"_defaultMat",
			"pbrMetallicRoughness":{
				"metallicFactor":0
			}
		}
	],
	"meshes":[
		{
			"name":"blasterD",
			"primitives":[
				{
					"attributes":{
						"POSITION":0,
						"NORMAL":1,
						"TEXCOORD_0":2
					},
					"indices":3,
					"material":0
				},
				{
					"attributes":{
						"POSITION":4,
						"NORMAL":5,
						"TEXCOORD_0":6
					},
					"indices":7,
					"material":1
				},
				{
					"attributes":{
						"POSITION":8,
						"NORMAL":9,
						"TEXCOORD_0":10
					},
					"indices":11,
					"material":2
				},
				{
					"attributes":{
						"POSITION":12,
						"NORMAL":13,
						"TEXCOORD_0":14
					},
					"indices":15,
					"material":3
				},
				{
					"attributes":{
						"POSITION":16,
						"NORMAL":17,
						"TEXCOORD_0":18
					},
					"indices":19,
					"material":4
				}
			]
		}
	],
	"accessors":[
		{
			"bufferView":0,
			"componentType":5126,
			"count":147,
			"max":[
				0.07999999821186066,
				0.3799999952316284,
				0.17499999701976776
			],
			"min":[
				-0.07999999821186066,
				-0.3400000035762787,
				-0.17499999701976776
			],
			"type":"VEC3"
		},
		{
			"bufferView":1,
			"componentType":5126,
			"count":147,
			"type":"VEC3"
		},
		{
			"bufferView":2,
			"componentType":5126,
			"count":147,
			"type":"VEC2"
		},
		{
			"bufferView":3,
			"componentType":5123,
			"count":237,
			"type":"SCALAR"
		},
		{
			"bufferView":4,
			"componentType":5126,
			"count":348,
			"max":[
				0.05000000074505806,
				0.20499999821186066,
				0.1550000011920929
			],
			"min":[
				-0.05000000074505806,
				-0.4300000071525574,
				-0.16500000655651093
			],
			"type":"VEC3"
		},
		{
			"bufferView":5,
			"componentType":5126,
			"count":348,
			"type":"VEC3"
		},
		{
			"bufferView":6,
			"componentType":5126,
			"count":348,
			"type":"VEC2"
		},
		{
			"bufferView":7,
			"componentType":5123,
			"count":594,
			"type":"SCALAR"
		},
		{
			"bufferView":8,
			"componentType":5126,
			"count":44,
			"max":[
				0.07999999821186066,
				0.3799999952316284,
				0.08500000089406967
			],
			"min":[
				-0.07999999821186066,
				-0.3400000035762787,
				-0.0949999988079071
			],
			"type":"VEC3"
		},
		{
			"bufferView":9,
			"componentType":5126,
			"count":44,
			"type":"VEC3"
		},
		{
			"bufferView":10,
			"componentType":5126,
			"count":44,
			"type":"VEC2"
		},
		{
			"bufferView":11,
			"componentType":5123,
			"count":96,
			"type":"SCALAR"
		},
		{
			"bufferView":12,
			"componentType":5126,
			"count":191,
			"max":[
				0.05000000074505806,
				0.4300000071525574,
				0.07500000298023224
			],
			"min":[
				-0.05000000074505806,
				-0.36000001430511475,
				-0.11500000208616257
			],
			"type":"VEC3"
		},
		{
			"bufferView":13,
			"componentType":5126,
			"count":191,
			"type":"VEC3"
		},
		{
			"bufferView":14,
			"componentType":5126,
			"count":191,
			"type":"VEC2"
		},
		{
			"bufferView":15,
			"componentType":5123,
			"count":483,
			"type":"SCALAR"
		},
		{
			"bufferView":16,
			"componentType":5126,
			"count":95,
			"max":[
				0.029999999329447746,
				-0.4300000071525574,
				-0.009999999776482582
			],
			"min":[
				-0.029999999329447746,
				-0.4300000071525574,
				-0.07000000029802322
			],
			"type":"VEC3"
		},
		{
			"bufferView":17,
			"componentType":5126,
			"count":95,
			"type":"VEC3"
		},
		{
			"bufferView":18,
			"componentType":5126,
			"count":95,
			"type":"VEC2"
		},
		{
			"bufferView":19,
			"componentType":5123,
			"count":144,
			"type":"SCALAR"
		}
	],
	"bufferViews":[
		{
			"buffer":0,
			"byteLength":1764,
			"byteOffset":0,
			"target":34962
		},
		{
			"buffer":0,
			"byteLength":1764,
			"byteOffset":1764,
			"target":34962
		},
		{
			"buffer":0,
			"byteLength":1176,
			"byteOffset":3528,
			"target":34962
		},
		{
			"buffer":0,
			"byteLength":474,
			"byteOffset":4704,
			"target":34963
		},
		{
			"buffer":0,
			"byteLength":4176,
			"byteOffset":5180,
			"target":34962
		},
		{
			"buffer":0,
			"byteLength":4176,
			"byteOffset":9356,
			"target":34962
		},
		{
			"buffer":0,
			"byteLength":2784,
			"byteOffset":13532,
			"target":34962
		},
		{
			"buffer":0,
			"byteLength":1188,
			"byteOffset":16316,
			"target":34963
		},
		{
			"buffer":0,
			"byteLength":528,
			"byteOffset":17504,
			"target":34962
		},
		{
			"buffer":0,
			"byteLength":528,
			"byteOffset":18032,
			"target":34962
		},
		{
			"buffer":0,
			"byteLength":352,
			"byteOffset":18560,
			"target":34962
		},
		{
			"buffer":0,
			"byteLength":192,
			"byteOffset":18912,
			"target":34963
		},
		{
			"buffer":0,
			"byteLength":2292,
			"byteOffset":19104,
			"target":34962
		},
		{
			"buffer":0,
			"byteLength":2292,
			"byteOffset":21396,
			"target":34962
		},
		{
			"buffer":0,
			"byteLength":1528,
			"byteOffset":23688,
			"target":34962
		},
		{
			"buffer":0,
			"byteLength":966,
			"byteOffset":25216,
			"target":34963
		},
		{
			"buffer":0,
			"byteLength":1140,
			"byteOffset":26184,
			"target":34962
		},
		{
			"buffer":0,
			"byteLength":1140,
			"byteOffset":27324,
			"target":34962
		},
		{
			"buffer":0,
			"byteLength":760,
			"byteOffset":28464,
			"target":34962
		},
		{
			"buffer":0,
			"byteLength":288,
			"byteOffset":29224,
			"target":34963
		}
	],
	"buffers":[
		{
			"byteLength":29512,
			"uri":"blaster.bin"
		}
	]
}
